<svg id="eWP78NLdfAr1" xmlns="http://www.w3.org/2000/svg" xmlns:xlink="http://www.w3.org/1999/xlink" viewBox="0 0 24 24" shape-rendering="geometricPrecision" text-rendering="geometricPrecision"><path d="M20.98,11.802c-.075697-.378356-.363315-.678835-.738-.771l-6.86-1.716l2.537-5.921c.1819-.42289.050939-.915334-.317-1.192-.367323-.278534-.877785-.268606-1.234.024l-11,9c-.292622.239373-.425235.623305-.34273.992249s.366021.65982.73273.751751l6.719,1.681-3.345,5.854c-.175601.309471-.17372.688898.00494.996613s.507241.497459.86306.498387c.216429.000363.427074-.069853.6-.2l12-9c.308559-.231525.456432-.619885.38-.998Z" transform="matrix(.870229-.492648-.492648-.870229 7.265739 27.873092)" fill="#e4b700"/><path d="M20.98,11.802c-.075697-.378356-.363315-.678835-.738-.771l-6.86-1.716l2.537-5.921c.1819-.42289.050939-.915334-.317-1.192-.367323-.278534-.877785-.268606-1.234.024l-11,9c-.292622.239373-.425235.623305-.34273.992249s.366021.65982.73273.751751l6.719,1.681-3.345,5.854c-.175601.309471-.17372.688898.00494.996613s.507241.497459.86306.498387c.216429.000363.427074-.069853.6-.2l12-9c.308559-.231525.456432-.619885.38-.998Z" transform="matrix(.87629-.481784-.481784-.87629 7.522274 28.815639)" fill="#0386c0"/></svg>
